G04 ================== begin FILE IDENTIFICATION RECORD ==================*
G04 Layout Name:  C:/Projetos/Projetos_PCB/Projeto_Esperanto/PCB/esperanto_versao2.brd*
G04 Film Name:    BOTTOM*
G04 File Format:  Gerber RS274X*
G04 File Origin:  15.5-p006*
G04 Origin Date:  Wed Mar 28 15:10:49 2007*
G04 ================== end FILE IDENTIFICATION RECORD ====================*
%FSLAX55Y55*MOIN*%
%IR0*IPPOS*OFA0.00000B0.00000*MIA0B0*SFA1.00000B1.00000*%
%ADD15O,.05X.1*%
%ADD13O,.1X.05*%
%ADD17C,.05*%
%ADD19C,.07*%
%ADD12C,.065*%
%ADD16R,.06X.06*%
%ADD18R,.07X.07*%
%ADD11R,.065X.065*%
%ADD14C,.1*%
%ADD10C,.11811*%
%ADD20C,.02*%
%ADD21C,.03*%
%ADD22C,.016*%
%ADD25O,.08202X.13202*%
%ADD23C,.09704*%
%ADD26C,.10204*%
%ADD24C,.13204*%
G75*
%LPD*%
G75*
G36*
G01X1119250Y982341D02*
G03X1112928Y975613I-4250J-2341D01*
G02X1112757Y974851I-171J-362D01*
G01X1105149D01*
Y965149D01*
X1114851D01*
Y967757D01*
G02X1115613Y967928I400J0D01*
G03X1119808Y965152I4387J2072D01*
G01X1120000Y965144D01*
Y962500D01*
X1063279D01*
G02X1062977Y963163I0J400D01*
G03X1053023I-4977J4337D01*
G02X1052721Y962500I-302J-263D01*
G01X1017500D01*
Y980909D01*
G02X1017900Y981309I400J0D01*
G03X1018041Y981335I0J398D01*
G02X1019500Y981603I1458J-3834D01*
G01X1024500D01*
G02X1024983Y981574I-4J-4103D01*
G03X1025426Y982017I47J396D01*
G02Y982983I4074J483D01*
G03X1024983Y983426I-396J47D01*
G02X1024500Y983397I-487J4074D01*
G01X1019500D01*
G02X1018041Y983665I-1J4102D01*
G03X1017900Y983691I-141J-372D01*
G02X1017500Y984091I0J400D01*
G01Y1019999D01*
X1032501D01*
Y1020186D01*
G02X1033061Y1020552I400J0D01*
G03Y1029448I1939J4448D01*
G02X1032501Y1029814I-160J366D01*
G01Y1040144D01*
X1032693Y1040152D01*
G03X1030157Y1040751I-194J4848D01*
G02X1029964Y1040001I-193J-350D01*
G01X1017500D01*
Y1070000D01*
X1029966D01*
G02X1030159Y1069250I0J-400D01*
G03X1034841I2341J-4250D01*
G02X1035034Y1070000I193J350D01*
G01X1068340D01*
X1068399Y1069907D01*
G03X1076538Y1069810I4101J2593D01*
G01X1076597Y1069899D01*
X1098577D01*
X1098678Y1070000D01*
X1108340D01*
X1108399Y1069907D01*
G03X1116601I4101J2593D01*
G01X1116660Y1070000D01*
X1120000D01*
Y1063319D01*
X1119879Y1063267D01*
G03X1117399Y1059500I1621J-3767D01*
G01Y1054500D01*
G03X1118615Y1051585I4102J0D01*
G02X1118334Y1050901I-281J-284D01*
G01X1114666D01*
G02X1114385Y1051585I0J400D01*
G03X1115601Y1054500I-2886J2915D01*
G01Y1059500D01*
G03X1107399I-4101J0D01*
G01Y1054500D01*
G03X1108615Y1051585I4102J0D01*
G02X1108334Y1050901I-281J-284D01*
G01X1104995D01*
X1104350Y1051545D01*
X1104484Y1051686D01*
G03X1105601Y1054500I-2984J2813D01*
G01Y1059500D01*
G03X1097399I-4101J0D01*
G01Y1054500D01*
G03X1099020Y1051234I4101J0D01*
G01X1099099Y1051174D01*
Y1050005D01*
X1102222Y1046883D01*
G02X1101939Y1046200I-283J-283D01*
G01X1099696D01*
X1094350Y1051545D01*
X1094484Y1051686D01*
G03X1095601Y1054500I-2984J2813D01*
G01Y1059500D01*
G03X1087399I-4101J0D01*
G01Y1054500D01*
G03X1089020Y1051234I4101J0D01*
G01X1089099Y1051174D01*
Y1050005D01*
X1096604Y1042500D01*
X1089099Y1034995D01*
Y1032826D01*
X1089020Y1032766D01*
G03X1087399Y1029500I2480J-3266D01*
G01Y1024500D01*
G03X1095601I4101J0D01*
G01Y1029500D01*
G03X1094144Y1032635I-4101J0D01*
G02X1094119Y1033223I258J306D01*
G01X1098995Y1038099D01*
X1101238D01*
G02X1101521Y1037416I0J-400D01*
G01X1099099Y1034995D01*
Y1032826D01*
X1099020Y1032766D01*
G03X1097399Y1029500I2480J-3266D01*
G01Y1024500D01*
G03X1105601I4101J0D01*
G01Y1029500D01*
G03X1104144Y1032635I-4101J0D01*
G02X1104119Y1033223I258J306D01*
G01X1105895Y1034999D01*
X1110938D01*
G02X1111221Y1034316I0J-400D01*
G01X1110338Y1033433D01*
X1110290Y1033419D01*
G03X1107399Y1029500I1211J-3919D01*
G01Y1024500D01*
G03X1109020Y1021234I4101J0D01*
G01X1109088Y1021182D01*
Y990091D01*
X1109087Y990084D01*
X1109073Y990051D01*
X1109052Y990020D01*
X1108294Y989260D01*
X1103946Y984912D01*
X1099818D01*
X1099766Y984980D01*
G03X1096500Y986601I-3266J-2480D01*
G01X1091500D01*
G03X1091017Y986572I4J-4101D01*
G02X1090572Y987017I-47J398D01*
G03Y987983I-4072J483D01*
G02X1091017Y988428I398J47D01*
G03X1091500Y988399I487J4072D01*
G01X1096500D01*
G03Y996601I0J4101D01*
G01X1091500D01*
G03X1091017Y996572I4J-4101D01*
G02X1090572Y997017I-47J398D01*
G03Y997983I-4072J483D01*
G02X1091017Y998428I398J47D01*
G03X1091500Y998399I487J4072D01*
G01X1096500D01*
G03Y1006601I0J4101D01*
G01X1091500D01*
G03X1091017Y1006572I4J-4101D01*
G02X1090572Y1007017I-47J398D01*
G03X1086500Y1011601I-4072J483D01*
G01X1081500D01*
G03Y1003399I0J-4101D01*
G01X1086500D01*
G03X1086983Y1003428I-4J4101D01*
G02X1087428Y1002983I47J-398D01*
G03Y1002017I4072J-483D01*
G02X1086983Y1001572I-398J-47D01*
G03X1086500Y1001601I-487J-4072D01*
G01X1081500D01*
G03X1078388Y1000171I0J-4101D01*
G01X1078328Y1000101D01*
X1076077D01*
X1075101Y1001077D01*
Y1013923D01*
X1077601Y1016423D01*
Y1020903D01*
X1077690Y1020962D01*
G03X1078397Y1028464I-2690J4038D01*
G02Y1029036I280J286D01*
G03X1071603I-3397J3464D01*
G02Y1028464I-280J-286D01*
G03X1072310Y1020962I3397J-3464D01*
G01X1072399Y1020903D01*
Y1018577D01*
X1069899Y1016077D01*
Y998923D01*
X1073923Y994899D01*
X1078328D01*
X1078388Y994829D01*
G03X1081500Y993399I3112J2671D01*
G01X1086500D01*
G03X1086983Y993428I-4J4101D01*
G02X1087428Y992983I47J-398D01*
G03Y992017I4072J-483D01*
G02X1086983Y991572I-398J-47D01*
G03X1086500Y991601I-487J-4072D01*
G01X1081500D01*
G03Y983399I0J-4101D01*
G01X1086500D01*
G03X1086983Y983428I-4J4101D01*
G02X1087428Y982983I47J-398D01*
G03Y982017I4072J-483D01*
G02X1086983Y981572I-398J-47D01*
G03X1086500Y981601I-487J-4072D01*
G01X1081500D01*
G03Y973399I0J-4101D01*
G01X1086500D01*
G03X1086983Y973428I-4J4101D01*
G02X1087428Y972983I47J-398D01*
G03X1091500Y968399I4072J-483D01*
G01X1096500D01*
G03Y976601I0J4101D01*
G01X1091500D01*
G03X1091017Y976572I4J-4101D01*
G02X1090572Y977017I-47J398D01*
G03Y977983I-4072J483D01*
G02X1091017Y978428I398J47D01*
G03X1091500Y978399I487J4072D01*
G01X1096500D01*
G03X1099766Y980020I0J4101D01*
G01X1099818Y980088D01*
X1105944D01*
X1111706Y985850D01*
X1112802Y986948D01*
X1113349Y987769D01*
X1113727Y988682D01*
X1113912Y989621D01*
Y1021182D01*
X1113980Y1021234D01*
G03X1115601Y1024500I-2480J3266D01*
G01Y1029500D01*
G03X1115185Y1031299I-4101J-1D01*
G01X1115123Y1031427D01*
X1115595Y1031899D01*
X1117467D01*
G02X1117826Y1031321I0J-400D01*
G03X1117399Y1029500I3674J-1822D01*
G01Y1024500D01*
G03X1118856Y1021365I4101J0D01*
G02X1118881Y1020777I-258J-306D01*
G01X1115099Y1016995D01*
Y989555D01*
X1120000Y984654D01*
Y982534D01*
G02X1119250Y982341I-400J0D01*
G37*
%LPC*%
G75*
G36*
G01X1057928Y1055613D02*
G02X1062072I2072J4387D01*
G03X1062243Y1054851I171J-362D01*
G01X1064851D01*
Y1045149D01*
X1055149D01*
Y1054851D01*
X1057757D01*
G03X1057928Y1055613I0J400D01*
G37*
G54D23*
X1075000Y1052500D03*
G54D24*
X1058000Y1012500D03*
%LPD*%
G75*
G36*
G01X1017500Y1142500D02*
Y1152500D01*
X1049999D01*
Y1142500D01*
X1046660D01*
X1046601Y1142593D01*
G03X1038399I-4101J-2593D01*
G01X1038340Y1142500D01*
X1026660D01*
X1026601Y1142593D01*
G03X1018399I-4101J-2593D01*
G01X1018340Y1142500D01*
X1017500D01*
G37*
G36*
G01X1047351Y1132500D02*
Y1134851D01*
X1044743D01*
G02X1044572Y1135613I0J400D01*
G03X1046947Y1141940I-2072J4387D01*
G02X1047314Y1142500I367J160D01*
G01X1049999D01*
Y1137499D01*
X1070001D01*
Y1142500D01*
X1080000D01*
Y1132500D01*
X1079160D01*
X1079101Y1132593D01*
G03X1070899I-4101J-2593D01*
G01X1070840Y1132500D01*
X1047351D01*
G37*
G36*
G01X1026660D02*
X1026601Y1132593D01*
G03X1023985Y1134619I-4101J-2593D01*
G02Y1135381I122J381D01*
G03X1026947Y1141940I-1485J4619D01*
G02X1027314Y1142500I367J160D01*
G01X1037686D01*
G02X1038053Y1141940I0J-400D01*
G03X1040428Y1135613I4447J-1940D01*
G02X1040257Y1134851I-171J-362D01*
G01X1037649D01*
Y1132500D01*
X1026660D01*
G37*
G36*
G01X1070001Y1142500D02*
Y1152500D01*
X1120000D01*
Y1142500D01*
X1070001D01*
G37*
G36*
G01X1125381Y971485D02*
G02X1124619I-381J122D01*
G03X1120192Y974848I-4619J-1485D01*
G01X1120000Y974856D01*
Y983689D01*
G02X1120683Y983972I400J0D01*
G01X1121505Y983149D01*
X1130525D01*
G02X1130866Y982540I0J-400D01*
G03X1137032Y975594I4134J-2540D01*
G02X1137599Y975231I167J-363D01*
G01Y974218D01*
X1137502Y974160D01*
G03X1135381Y971485I2498J-4159D01*
G02X1134619I-381J122D01*
G03X1125381I-4619J-1485D01*
G37*
G36*
G01X1120000Y962500D02*
Y965144D01*
X1120192Y965152D01*
G03X1124619Y968515I-192J4848D01*
G02X1125381I381J-122D01*
G03X1134619I4619J1485D01*
G02X1135381I381J-122D01*
G03X1144619I4619J1485D01*
G02X1145381I381J-122D01*
G03X1154619I4619J1485D01*
G02X1155381I381J-122D01*
G03Y971485I4619J1485D01*
G02X1154619I-381J122D01*
G03X1152498Y974160I-4619J-1484D01*
G01X1152401Y974218D01*
Y985995D01*
X1146545Y991851D01*
X1145475D01*
G02X1145134Y992460I0J400D01*
G03X1136381Y996485I-4134J2540D01*
G02X1135619I-381J122D01*
G03X1126281Y996127I-4619J-1485D01*
G02X1125609Y995937I-389J93D01*
G01X1124901Y996645D01*
Y1014005D01*
X1128701Y1017805D01*
Y1020692D01*
G02X1129314Y1021030I400J0D01*
G03X1135601Y1024500I2186J3470D01*
G01Y1029500D01*
G03X1128832Y1032614I-4101J0D01*
G01X1128691Y1032494D01*
X1126868Y1034316D01*
G02X1127151Y1034999I283J283D01*
G01X1174105D01*
X1185099Y1024005D01*
Y1019218D01*
X1185002Y1019160D01*
G03X1184036Y1018397I2500J-4158D01*
G02X1183464I-286J280D01*
G03X1179101Y1019768I-3464J-3397D01*
G01X1178997Y1019748D01*
X1175428Y1023317D01*
X1175459Y1023429D01*
G03X1175601Y1024500I-3959J1070D01*
G01Y1029500D01*
G03X1167399I-4101J0D01*
G01Y1024500D01*
G03Y1024465I4101J-18D01*
G02X1166716Y1024179I-400J-3D01*
G01X1165601Y1025295D01*
Y1029500D01*
G03X1157399I-4101J0D01*
G01Y1024500D01*
G03X1163169Y1020754I4101J0D01*
G01X1163295Y1020810D01*
X1167820Y1016285D01*
X1167792Y1016175D01*
G03X1175964Y1011603I4708J-1175D01*
G02X1176536I286J-280D01*
G03X1183464I3464J3397D01*
G02X1184036I286J-280D01*
G03X1185002Y1010840I3466J3395D01*
G01X1185099Y1010782D01*
Y1004005D01*
X1194005Y995099D01*
X1230782D01*
X1230840Y995002D01*
G03X1233515Y992881I4159J2498D01*
G02Y992119I-122J-381D01*
G03X1239619Y986015I1485J-4619D01*
G02X1240381I381J-122D01*
G03X1249160Y985002I4619J1485D01*
G01X1249218Y985099D01*
X1250995D01*
X1253495Y987599D01*
X1253496D01*
X1256817Y990921D01*
G02X1257500Y990638I283J-283D01*
G01Y962500D01*
X1257001D01*
Y975601D01*
X1236999D01*
Y962500D01*
X1120000D01*
G37*
%LPC*%
G75*
G36*
G01X1156619Y992515D02*
G02Y995485I-4619J1485D01*
G03X1157381I381J122D01*
G02Y992515I4619J-1485D01*
G03X1156619I-381J-122D01*
G37*
G36*
G01X1175964Y971603D02*
G02Y978397I-3464J3397D01*
G03X1176536I286J280D01*
G02X1183464I3464J-3397D01*
G03X1184036I286J280D01*
G02X1190964I3464J-3397D01*
G03X1191536I286J280D01*
G02X1198464I3464J-3397D01*
G03X1199036I286J280D01*
G02X1205964I3464J-3397D01*
G03X1206536I286J280D01*
G02X1213464I3464J-3397D01*
G03X1214036I286J280D01*
G02X1220964I3464J-3397D01*
G03X1221536I286J280D01*
G02Y971603I3464J-3397D01*
G03X1220964I-286J-280D01*
G02X1214036I-3464J3397D01*
G03X1213464I-286J-280D01*
G02X1206536I-3464J3397D01*
G03X1205964I-286J-280D01*
G02X1199036I-3464J3397D01*
G03X1198464I-286J-280D01*
G02X1191536I-3464J3397D01*
G03X1190964I-286J-280D01*
G02X1184036I-3464J3397D01*
G03X1183464I-286J-280D01*
G02X1176536I-3464J3397D01*
G03X1175964I-286J-280D01*
G37*
G54D25*
X1151500Y1027000D03*
X1141500D03*
G54D23*
X1161000Y1011000D03*
X1131000D03*
%LPD*%
G75*
G36*
G01X1115613Y972072D02*
G02X1114851Y972243I-362J171D01*
G01Y975146D01*
X1115049Y975148D01*
G03X1119250Y977659I-49J4852D01*
G02X1120000Y977466I350J-193D01*
G01Y974856D01*
X1119808Y974848D01*
G03X1115613Y972072I192J-4848D01*
G37*
G36*
G01X1257500Y1039361D02*
G02X1256817Y1039078I-400J0D01*
G01X1253495Y1042401D01*
X1247346D01*
G02X1247167Y1043159I0J400D01*
G03X1240613Y1049572I-2167J4341D01*
G02X1239851Y1049743I-362J171D01*
G01Y1052351D01*
X1232034D01*
X1225601Y1058784D01*
Y1091899D01*
X1238716D01*
X1244899Y1085716D01*
Y1079899D01*
X1246833D01*
G02X1247063Y1079172I0J-400D01*
G03X1247871Y1070363I2937J-4172D01*
G02Y1069637I-167J-363D01*
G03X1252129I2129J-4637D01*
G02Y1070363I167J363D01*
G03X1252937Y1079172I-2129J4637D01*
G02X1253167Y1079899I230J327D01*
G01X1255101D01*
Y1090101D01*
X1249284D01*
X1241284Y1098101D01*
X1231046D01*
G02X1230716Y1098726I0J400D01*
G03X1221633Y1100070I-4216J2874D01*
G02X1220968Y1099667I-382J-120D01*
G01X1218101Y1102534D01*
Y1106267D01*
X1218170Y1106327D01*
G03X1211536Y1113397I-3170J3673D01*
G02X1210964I-286J280D01*
G03Y1106603I-3464J-3397D01*
G02X1211536I286J-280D01*
G03X1211830Y1106327I3465J3396D01*
G01X1211899Y1106267D01*
Y1099966D01*
X1219399Y1092466D01*
Y1082701D01*
X1216733D01*
X1216673Y1082770D01*
G03Y1076430I-3673J-3170D01*
G01X1216733Y1076499D01*
X1219399D01*
Y1056216D01*
X1219672Y1055942D01*
G02X1219531Y1055601I-141J-141D01*
G01X1216825D01*
G02X1216534Y1056275I0J400D01*
G03X1210286Y1063622I-3534J3325D01*
G01X1210149Y1063529D01*
X1205101Y1068577D01*
Y1101077D01*
X1198577Y1107601D01*
X1197601D01*
Y1112601D01*
X1195101D01*
Y1116423D01*
X1198577Y1119899D01*
X1220864D01*
X1220886Y1119894D01*
G03X1220951Y1119880I580J2535D01*
G01X1221039Y1119862D01*
G03X1221132Y1119844I541J2544D01*
G01X1221144Y1119842D01*
G03X1221254Y1119826I429J2566D01*
G01X1221478Y1119799D01*
X1223195D01*
G02X1223436Y1119079I0J-400D01*
G03X1229564I3064J-4079D01*
G02X1229805Y1119799I241J320D01*
G01X1232156D01*
X1232207Y1119850D01*
X1237443D01*
X1237495Y1119727D01*
G03X1238408Y1125113I4705J1973D01*
G01X1238333Y1125030D01*
X1238214Y1125052D01*
X1231601D01*
Y1133501D01*
X1221399D01*
Y1125535D01*
G02X1220990Y1125135I-400J0D01*
G03X1220518Y1125103I-61J-2600D01*
G01X1220502Y1125101D01*
X1196423D01*
X1189899Y1118577D01*
Y1112601D01*
X1187399D01*
Y1102399D01*
X1196423D01*
X1199899Y1098923D01*
Y1066423D01*
X1208476Y1057845D01*
X1208491Y1057807D01*
G03X1209466Y1056275I4509J1793D01*
G02X1209175Y1055601I-291J-274D01*
G01X1196233D01*
X1196173Y1055670D01*
G03X1187713Y1051708I-3673J-3170D01*
G02X1187036Y1051360I-395J-65D01*
G01X1185995Y1052401D01*
X1176101D01*
Y1056881D01*
G02X1176691Y1057232I399J0D01*
G03X1177825Y1066208I2309J4268D01*
G01X1177715Y1066180D01*
X1170247Y1073649D01*
X1170314Y1073779D01*
G03X1161613Y1078072I-4314J2221D01*
G02X1160851Y1078243I-362J171D01*
G01Y1080851D01*
X1151149D01*
Y1071149D01*
X1160851D01*
Y1073757D01*
G02X1161613Y1073928I400J0D01*
G03X1165877Y1071150I4387J2072D01*
G01X1165957Y1071148D01*
X1174320Y1062785D01*
X1174292Y1062675D01*
G03X1174157Y1061789I4709J-1171D01*
G01X1174145Y1061601D01*
X1166899D01*
Y1052401D01*
X1165995D01*
X1165340Y1053055D01*
X1165380Y1053173D01*
G03X1165601Y1054500I-3880J1328D01*
G01Y1059500D01*
G03X1157399I-4101J0D01*
G01Y1054500D01*
G03X1161123Y1050416I4101J0D01*
G01X1161195Y1050410D01*
X1161622Y1049983D01*
G02X1161339Y1049300I-283J-283D01*
G01X1155596D01*
X1154119Y1050777D01*
G02X1154144Y1051365I283J282D01*
G03X1155601Y1054500I-2644J3135D01*
G01Y1059500D01*
G03X1149679Y1063174I-4101J0D01*
G02X1149101Y1063533I-178J359D01*
G01Y1089295D01*
X1141360Y1097036D01*
G02X1141708Y1097713I283J282D01*
G03X1145964Y1099103I792J4787D01*
G02X1146536I286J-280D01*
G03X1154851Y1102403I3464J3397D01*
G01X1154855Y1102599D01*
X1158553D01*
G02X1158948Y1102137I0J-400D01*
G03X1158926Y1101018I4052J-639D01*
G02X1158482Y1100574I-397J-47D01*
G03X1162074Y1096982I-482J-4074D01*
G02X1162518Y1097426I397J47D01*
G03X1163482I482J4074D01*
G02X1163926Y1096982I47J-397D01*
G03X1167518Y1100574I4074J-482D01*
G02X1167074Y1101018I-47J397D01*
G03X1162884Y1105600I-4074J482D01*
G01X1162798Y1105598D01*
X1160995Y1107401D01*
X1151505D01*
X1151285Y1107180D01*
X1151175Y1107208D01*
G03X1146536Y1105897I-1174J-4708D01*
G02X1145964I-286J280D01*
G03X1139036I-3464J-3397D01*
G02X1138464I-286J280D01*
G03X1131536I-3464J-3397D01*
G02X1130964I-286J280D01*
G03Y1099103I-3464J-3397D01*
G02X1131536I286J-280D01*
G03X1133756Y1097810I3465J3397D01*
G01X1133808Y1097796D01*
X1144299Y1087305D01*
Y1063308D01*
G02X1143686Y1062970I-400J0D01*
G03X1137399Y1059500I-2186J-3470D01*
G01Y1054500D01*
G03X1138615Y1051585I4102J0D01*
G02X1138334Y1050901I-281J-284D01*
G01X1134666D01*
G02X1134385Y1051585I0J400D01*
G03X1135601Y1054500I-2886J2915D01*
G01Y1059500D01*
G03X1127399I-4101J0D01*
G01Y1054500D01*
G03X1128615Y1051585I4102J0D01*
G02X1128334Y1050901I-281J-284D01*
G01X1124666D01*
G02X1124385Y1051585I0J400D01*
G03X1125601Y1054500I-2886J2915D01*
G01Y1059500D01*
G03X1120498Y1063477I-4101J0D01*
G02X1120000Y1063864I-99J387D01*
G01Y1089248D01*
X1120074Y1089308D01*
G03Y1095692I-2574J3192D01*
G01X1120000Y1095752D01*
Y1099248D01*
X1120074Y1099308D01*
G03Y1105692I-2574J3192D01*
G01X1120000Y1105752D01*
Y1111748D01*
X1120074Y1111808D01*
G03Y1118192I-2574J3192D01*
G01X1120000Y1118252D01*
Y1121748D01*
X1120074Y1121808D01*
G03Y1128192I-2574J3192D01*
G01X1120000Y1128252D01*
Y1131748D01*
X1120074Y1131808D01*
G03Y1138192I-2574J3192D01*
G01X1120000Y1138252D01*
Y1152500D01*
X1189481D01*
G02X1189701Y1151766I0J-400D01*
G03X1195299I2799J-4266D01*
G02X1195519Y1152500I220J334D01*
G01X1202686D01*
G02X1203053Y1151940I0J-400D01*
G03X1210964Y1146603I4447J-1940D01*
G02X1211536I286J-280D01*
G03X1219447Y1151940I3464J3397D01*
G02X1219814Y1152500I367J160D01*
G01X1239999D01*
Y1134999D01*
X1257500D01*
Y1039361D01*
G37*
%LPC*%
G75*
G36*
G01X1130964Y1139103D02*
G02Y1145897I-3464J3397D01*
G03X1131536I286J280D01*
G02X1138464I3464J-3397D01*
G03X1139036I286J280D01*
G02X1145964I3464J-3397D01*
G03X1146536I286J280D01*
G02Y1139103I3464J-3397D01*
G03X1145964I-286J-280D01*
G02X1139036I-3464J3397D01*
G03X1138464I-286J-280D01*
G02X1131536I-3464J3397D01*
G03X1130964I-286J-280D01*
G37*
G36*
G01X1166887Y1120428D02*
G02Y1124572I-4387J2072D01*
G03X1167649Y1124743I362J171D01*
G01Y1127351D01*
X1177351D01*
Y1117649D01*
X1167649D01*
Y1120257D01*
G03X1166887Y1120428I-400J0D01*
G37*
G36*
G01X1131887Y1075428D02*
G02Y1079572I-4387J2072D01*
G03X1132649Y1079743I362J171D01*
G01Y1082351D01*
X1142351D01*
Y1072649D01*
X1132649D01*
Y1075257D01*
G03X1131887Y1075428I-400J0D01*
G37*
G54D23*
X1179000Y1101500D03*
X1192500Y1092500D03*
X1235000Y1085000D03*
Y1065000D03*
G54D26*
X1242200Y1108300D03*
%LPD*%
G75*
G54D10*
X1022500Y1030000D03*
X1060000Y1147500D03*
X1247000Y965600D03*
X1250000Y1145000D03*
G54D20*
G01X1032500Y1045000D02*
X1037550D01*
G01X1027450D02*
X1032500D01*
G01D02*
Y1050050D01*
G01X1022500Y1140000D02*
X1027500D01*
G01X1022500D02*
Y1145000D01*
G01X1075000Y1025000D02*
Y1017500D01*
X1072500Y1015000D01*
Y1000000D01*
X1075000Y997500D01*
X1084000D01*
G01X1075000Y1047450D02*
Y1052500D01*
G01X1072500Y1072500D02*
X1097500D01*
X1100000Y1075000D01*
Y1087500D01*
X1105000Y1092500D01*
X1115000D01*
G01X1075000Y1052500D02*
X1080050D01*
G01X1069950D02*
X1075000D01*
G01D02*
Y1057550D01*
G01X1060000Y1060000D02*
X1065050D01*
G01X1054950D02*
X1060000D01*
G01D02*
Y1065050D01*
G01X1094000Y988200D02*
Y992500D01*
G01D02*
X1100800D01*
G01X1087200D02*
X1094000D01*
G01D02*
Y996800D01*
G01X1129950Y980000D02*
X1135000D01*
G01Y974950D02*
Y980000D01*
G01X1130000Y970000D02*
Y975050D01*
G01Y964950D02*
Y970000D01*
G01X1137500Y1077500D02*
X1142550D01*
G01X1137500D02*
Y1082550D01*
G01Y1072450D02*
Y1077500D01*
G01X1131500Y1057000D02*
X1135800D01*
G01X1127200D02*
X1131500D01*
G01D02*
Y1063800D01*
G01X1127500Y1102500D02*
Y1107550D01*
G01Y1097450D02*
Y1102500D01*
G01X1152000Y988950D02*
Y994000D01*
G01X1141000Y995000D02*
X1146050D01*
G01X1141000D02*
Y1000050D01*
G01X1146950Y994000D02*
X1152000D01*
G01D02*
Y999050D01*
G01X1157450Y1122500D02*
X1162500D01*
G01D02*
Y1127550D01*
G01Y1117450D02*
Y1122500D01*
G01X1192500Y1107500D02*
X1195000Y1105000D01*
X1197500D01*
X1202500Y1100000D01*
Y1067500D01*
X1210400Y1059600D01*
X1213000D01*
G01X1192500Y1107500D02*
Y1117500D01*
X1197500Y1122500D01*
X1220893D01*
X1220928Y1122535D01*
X1221111Y1122500D01*
X1221117D01*
X1221387Y1122447D01*
X1221416Y1122441D01*
X1221436Y1122437D01*
X1221437D01*
X1221455Y1122433D01*
X1221472Y1122428D01*
X1221560Y1122410D01*
X1221572Y1122408D01*
X1221637Y1122400D01*
X1231079D01*
X1231130Y1122451D01*
X1237975D01*
X1238460Y1122361D01*
X1241539D01*
X1242200Y1121700D01*
G01X1192500Y1092500D02*
X1197550D01*
G01X1187450D02*
X1192500D01*
G01D02*
Y1097550D01*
G01Y1087450D02*
Y1092500D01*
G01Y1147500D02*
X1197800D01*
G01X1187200D02*
X1192500D01*
G01Y1142200D02*
Y1147500D01*
G01X1202450Y1110000D02*
X1207500D01*
G01Y1104950D02*
Y1110000D01*
G01X1226500Y1101600D02*
X1231800D01*
G01X1221200D02*
X1226500D01*
G01D02*
Y1106900D01*
G01Y1109700D02*
Y1115000D01*
G01X1229950Y1085000D02*
X1235000D01*
G01X1226500Y1115000D02*
X1231800D01*
G01X1221200D02*
X1226500D01*
G01X1245000Y1047500D02*
X1250050D01*
G01X1245000D02*
Y1052550D01*
G01X1250000Y1075000D02*
X1255300D01*
G01X1244700D02*
X1250000D01*
G01X1235000Y1079950D02*
Y1085000D01*
G01D02*
X1240050D01*
G01X1235000D02*
Y1090050D01*
G54D11*
X1022500Y1080000D03*
X1042500Y1130000D03*
X1060000Y1050000D03*
X1057500Y1112500D03*
X1110000Y970000D03*
X1137500Y1077500D03*
X1156000Y1076000D03*
X1172500Y1122500D03*
X1235000Y1047500D03*
Y1027500D03*
G54D21*
G01X1032500Y1080000D02*
X1040000D01*
X1045000Y1085000D01*
Y1100000D01*
G01X1075000Y1105000D02*
X1050000D01*
X1045000Y1100000D01*
G01X1022500Y1110000D02*
X1035000D01*
X1045000Y1100000D01*
G01X1075000Y1110000D02*
Y1105000D01*
G01X1085000Y1125000D02*
X1080000D01*
X1075000Y1120000D01*
Y1110000D01*
G01X1085000Y1102500D02*
X1077500D01*
X1075000Y1105000D01*
G01X1192500Y1052500D02*
X1227500D01*
G01D02*
X1232500Y1047500D01*
X1235000D01*
G01X1213000Y1079600D02*
X1222100D01*
X1222500Y1080000D01*
G01D02*
Y1057500D01*
X1227500Y1052500D01*
G01X1221250Y1095000D02*
X1222500Y1093750D01*
Y1080000D01*
G01X1221250Y1095000D02*
X1240000D01*
X1250000Y1085000D01*
G01X1215000Y1110000D02*
Y1101250D01*
X1221250Y1095000D01*
G54D12*
X1022500Y1090000D03*
Y1100000D03*
Y1110000D03*
Y1130000D03*
Y1140000D03*
X1035000Y1025000D03*
X1032500Y1045000D03*
Y1080000D03*
Y1065000D03*
Y1097500D03*
Y1087500D03*
X1047500Y1112500D03*
X1042500Y1140000D03*
X1075000Y1025000D03*
Y1032500D03*
Y1052500D03*
X1060000Y1060000D03*
X1072500Y1080000D03*
Y1072500D03*
Y1097500D03*
Y1087500D03*
X1075000Y1110000D03*
Y1130000D03*
X1112500Y1072500D03*
X1120000Y970000D03*
X1130000D03*
X1140000D03*
X1115000Y980000D03*
X1135000D03*
X1141000Y995000D03*
X1131000D03*
Y1011000D03*
X1127500Y1077500D03*
X1142500Y1102500D03*
X1127500D03*
X1135000D03*
X1142500Y1142500D03*
X1127500D03*
X1135000D03*
X1172500Y975000D03*
X1152000Y994000D03*
X1162000D03*
X1150000Y970000D03*
X1160000D03*
X1172500Y1015000D03*
X1161000Y1011000D03*
X1166000Y1076000D03*
X1150000Y1102500D03*
Y1142500D03*
X1162500Y1122500D03*
X1195000Y975000D03*
X1202500D03*
X1187500D03*
X1180000D03*
X1195000Y1015000D03*
X1202500D03*
X1187500D03*
X1180000D03*
X1192500Y1052500D03*
X1179000Y1061500D03*
Y1101500D03*
X1192500Y1092500D03*
X1210000Y975000D03*
X1217500D03*
X1225000D03*
X1210000Y1015000D03*
X1217500D03*
X1225000D03*
X1213000Y1059600D03*
Y1079600D03*
X1207500Y1110000D03*
X1215000D03*
X1207500Y1150000D03*
X1215000D03*
X1235000Y987500D03*
X1245000D03*
X1235000Y1017500D03*
X1245000D03*
X1235000Y1007500D03*
X1245000D03*
X1235000Y997500D03*
X1245000D03*
Y1047500D03*
Y1027500D03*
X1235000Y1065000D03*
Y1085000D03*
G54D22*
G01X1042500Y1140000D02*
Y1145000D01*
G01Y1140000D02*
X1047500D01*
G01X1042500D02*
X1037500D01*
G01X1111500Y1027000D02*
Y989856D01*
X1111407Y989383D01*
X1111211Y988910D01*
X1110927Y988484D01*
X1110000Y987555D01*
X1104945Y982500D01*
X1094000D01*
G01X1091500Y1027000D02*
Y1034000D01*
X1098000Y1040500D01*
X1177000D01*
X1195000Y1022500D01*
Y1015000D01*
G01X1187500D02*
Y1025000D01*
X1175100Y1037400D01*
X1104900D01*
X1101500Y1034000D01*
Y1027000D01*
G01X1135000Y1102500D02*
Y1100000D01*
X1146700Y1088300D01*
Y1051697D01*
X1144092Y1049089D01*
X1143512Y1048511D01*
X1143501Y1048500D01*
X1104000D01*
X1101500Y1051000D01*
Y1057000D01*
G01X1091500D02*
Y1051000D01*
X1098701Y1043799D01*
X1181201D01*
X1202500Y1022500D01*
Y1015000D01*
G01X1121500Y1027000D02*
Y1020000D01*
X1117500Y1016000D01*
Y990550D01*
X1122500Y985550D01*
X1140000D01*
X1142500Y983050D01*
Y977500D01*
X1140000Y975000D01*
Y970000D01*
G01X1150000D02*
Y985000D01*
X1145550Y989450D01*
X1128700D01*
X1122500Y995650D01*
Y1015000D01*
X1126300Y1018800D01*
Y1031489D01*
X1123489Y1034300D01*
X1114600D01*
X1111500Y1031200D01*
Y1027000D01*
G01X1115000Y1115000D02*
X1120000Y1110000D01*
G01X1115000Y1115000D02*
X1122500D01*
G01X1115000D02*
X1120000Y1120000D01*
G01X1172500Y1015000D02*
X1161500Y1026000D01*
Y1027000D01*
G01X1210000Y1015000D02*
Y1020000D01*
X1183101Y1046899D01*
X1154601D01*
X1151500Y1050000D01*
Y1057000D01*
G01X1161500D02*
Y1053500D01*
X1165000Y1050000D01*
X1185000D01*
X1197500Y1037500D01*
X1217500D01*
G01X1179000Y1061500D02*
X1166000Y1074500D01*
Y1076000D01*
G01X1150000Y1102500D02*
X1152500Y1105000D01*
X1160000D01*
X1163000Y1102000D01*
Y1101500D01*
G01X1195000Y1015000D02*
Y1005000D01*
X1197500Y1002500D01*
X1230000D01*
X1235000Y1007500D01*
G01Y997500D02*
X1195000D01*
X1187500Y1005000D01*
Y1015000D01*
G01X1180000D02*
X1178050Y1016950D01*
Y1017300D01*
X1171500Y1023850D01*
Y1027000D01*
G01X1225000Y1015000D02*
Y1032500D01*
X1227500Y1035000D01*
X1250000D01*
X1252500Y1032500D01*
Y1000600D01*
X1249400Y997500D01*
X1245000D01*
G01X1202500Y1015000D02*
Y1009100D01*
X1204100Y1007500D01*
X1227150D01*
X1235000Y1015350D01*
Y1017500D01*
G01X1217500Y1015000D02*
Y1037500D01*
G01D02*
X1220000Y1040000D01*
X1252500D01*
X1255601Y1036899D01*
Y993100D01*
X1252501Y990000D01*
X1252500D01*
X1250000Y987500D01*
X1245000D01*
G01X1207500Y1110000D02*
Y1117500D01*
G01X1245000Y1047500D02*
X1250000Y1052500D01*
G01X1245000Y1047500D02*
X1240000Y1052500D01*
G54D13*
X1084000Y987500D03*
Y977500D03*
Y997500D03*
Y1007500D03*
X1085000Y1082500D03*
Y1102500D03*
Y1092500D03*
Y1125000D03*
Y1115000D03*
X1094000Y992500D03*
Y982500D03*
Y972500D03*
Y1002500D03*
X1115000Y1092500D03*
Y1102500D03*
Y1115000D03*
Y1125000D03*
Y1135000D03*
G54D14*
X1058000Y967500D03*
Y1012500D03*
G54D15*
X1091500Y1027000D03*
X1101500D03*
X1111500D03*
Y1057000D03*
X1101500D03*
X1091500D03*
X1121500Y1027000D03*
X1131500D03*
X1141500D03*
Y1057000D03*
X1131500D03*
X1121500D03*
X1151500Y1027000D03*
X1161500D03*
X1171500D03*
X1161500Y1057000D03*
X1151500D03*
G54D16*
X1085000Y1135000D03*
X1115000Y1082500D03*
X1171500Y1057000D03*
G54D17*
X1158000Y1096500D03*
X1163000Y1101500D03*
X1168000Y1096500D03*
G54D18*
X1192500Y1107500D03*
X1226500Y1128400D03*
X1250000Y1085000D03*
G54D19*
X1192500Y1147500D03*
X1226500Y1101600D03*
Y1115000D03*
X1250000Y1075000D03*
Y1065000D03*
X1242200Y1108300D03*
Y1121700D03*
M02*
