M48
INCH
T01C.032
T02C.03598
T03C.036
T04C.041
T05C.042
T06C.044
T07C.045
T08C.055
T09C.084
T10C.11811
;LEADER: 12 
;HEADER: 
;CODE  : ASCII 
;FILE  : esperanto_versao2-1-1-2.drl for board esperanto_versao2.brd ... layers TOP and BOTTOM
;T01 Holesize 1. = 32.000000 Tolerance = +0.000000/-0.000000 PLATED MILS
;T02 Holesize 2. = 35.980000 Tolerance = +0.000000/-0.000000 PLATED MILS
;T03 Holesize 3. = 36.000000 Tolerance = +0.000000/-0.000000 PLATED MILS
;T04 Holesize 4. = 41.000000 Tolerance = +0.000000/-0.000000 PLATED MILS
;T05 Holesize 5. = 42.000000 Tolerance = +0.000000/-0.000000 PLATED MILS
;T06 Holesize 6. = 44.000000 Tolerance = +0.000000/-0.000000 PLATED MILS
;T07 Holesize 7. = 45.000000 Tolerance = +0.000000/-0.000000 PLATED MILS
;T08 Holesize 8. = 55.000000 Tolerance = +0.000000/-0.000000 PLATED MILS
;T09 Holesize 9. = 84.000000 Tolerance = +0.000000/-0.000000 PLATED MILS
;T10 Holesize 10. = 118.110000 Tolerance = +0.000000/-0.000000 NON_PLATED MILS
%
G90
T01
X11580Y10965
X11630Y11015
X11680Y10965
T02
X10600Y10600
X10475Y11125
X10425Y11400
X11625Y11225
X11925Y10525
X11925Y10925
X11275Y10775
X11660Y10760
X12450Y10275
X12350Y10175
X12450Y10175
X12350Y10075
X12450Y10075
X12350Y09975
X12450Y09975
X12350Y09875
X12450Y09875
X12450Y10475
X11610Y10110
X11310Y10110
T03
X10940Y10025
X10840Y09975
X10940Y09925
X10840Y09875
X10940Y09825
X10840Y09775
X10940Y09725
X10840Y10075
X10600Y10500
X10575Y11125
X10850Y11350
R02Y-00100
X11150Y11150
R02Y00100
X11150Y10825
R02Y00100
X10850Y11025
R02Y-00100
X10425Y11300
X11725Y11225
X11375Y10775
X11560Y10760
X12350Y10275
X11715Y10570
R08X-00100
X10915Y10270
R08X00100
X12350Y10475
T04
X12130Y10596
X12130Y10796
T05
X10350Y10250
X10750Y10250
X10750Y11300
X10750Y11100
X10750Y10325
X10750Y10525
X10725Y10800
X10325Y10800
X11125Y10725
X10725Y10725
X10725Y10975
X10325Y10975
X10725Y10875
X10325Y10875
X11350Y11025
X11350Y11425
X12100Y10150
X12100Y09750
X12175Y10150
X12175Y09750
X12250Y10150
X12250Y09750
X11790Y11015
X11790Y10615
X11425Y11025
X11425Y11425
X11275Y11025
X11275Y11425
X11500Y11025
X11500Y11425
X11520Y09940
X11620Y09940
X12350Y10650
X12350Y10850
X11150Y09800
X11350Y09800
X11410Y09950
X11310Y09950
X11800Y10150
X11800Y09750
X11725Y10150
X11725Y09750
X11950Y10150
X11950Y09750
X12025Y10150
X12025Y09750
X11875Y10150
X11875Y09750
X12150Y11500
X12150Y11100
X12075Y11100
X12075Y11500
T06
X12500Y10850
R02Y-00100
T07
X10225Y10800
R03Y00100
X10225Y11300
X10225Y11400
X10325Y10450
X10325Y10650
X11100Y09700
R05X00100
T08
X11925Y11475
X11925Y11075
X12265Y11284
X12422Y11217
X12265Y11150
X12422Y11083
X12265Y11016
T09
X10580Y09675
X10580Y10125
T10
X10225Y10300
X10600Y11475
X12470Y09656
X12500Y11450
M30
