G04 ================== begin FILE IDENTIFICATION RECORD ==================*
G04 Layout Name:  C:/Projetos/Projetos_PCB/Projeto_Esperanto/PCB/esperanto_versao2.brd*
G04 Film Name:    mask_top*
G04 File Format:  Gerber RS274X*
G04 File Origin:  15.5-p006*
G04 Origin Date:  Wed Mar 28 15:10:49 2007*
G04 ================== end FILE IDENTIFICATION RECORD ====================*
%FSLAX55Y55*MOIN*%
%IR0*IPPOS*OFA0.00000B0.00000*MIA0B0*SFA1.00000B1.00000*%
%ADD16O,.06X.11*%
%ADD14O,.11X.06*%
%ADD18C,.06*%
%ADD13C,.08*%
%ADD20C,.09*%
%ADD12C,.075*%
%ADD11R,.08X.08*%
%ADD19R,.09X.09*%
%ADD17R,.075X.075*%
%ADD15C,.12*%
%ADD10C,.11811*%
%LPD*%
G75*
G54D10*
X1022500Y1030000D03*
X1060000Y1147500D03*
X1247000Y965600D03*
X1250000Y1145000D03*
G54D11*
X1022500Y1080000D03*
X1042500Y1130000D03*
X1060000Y1050000D03*
X1057500Y1112500D03*
X1110000Y970000D03*
X1137500Y1077500D03*
X1156000Y1076000D03*
X1172500Y1122500D03*
X1235000Y1047500D03*
Y1027500D03*
G54D20*
X1192500Y1147500D03*
X1226500Y1101600D03*
Y1115000D03*
X1250000Y1075000D03*
Y1065000D03*
X1242200Y1108300D03*
Y1121700D03*
G54D12*
X1022500Y1090000D03*
Y1100000D03*
Y1110000D03*
Y1130000D03*
Y1140000D03*
X1032500Y1045000D03*
Y1065000D03*
X1120000Y970000D03*
X1130000D03*
X1140000D03*
X1150000D03*
X1160000D03*
G54D13*
X1035000Y1025000D03*
X1032500Y1080000D03*
Y1097500D03*
Y1087500D03*
X1047500Y1112500D03*
X1042500Y1140000D03*
X1075000Y1025000D03*
Y1032500D03*
Y1052500D03*
X1060000Y1060000D03*
X1072500Y1080000D03*
Y1072500D03*
Y1097500D03*
Y1087500D03*
X1075000Y1110000D03*
Y1130000D03*
X1112500Y1072500D03*
X1115000Y980000D03*
X1135000D03*
X1141000Y995000D03*
X1131000D03*
Y1011000D03*
X1127500Y1077500D03*
X1142500Y1102500D03*
X1127500D03*
X1135000D03*
X1142500Y1142500D03*
X1127500D03*
X1135000D03*
X1172500Y975000D03*
X1152000Y994000D03*
X1162000D03*
X1172500Y1015000D03*
X1161000Y1011000D03*
X1166000Y1076000D03*
X1150000Y1102500D03*
Y1142500D03*
X1162500Y1122500D03*
X1195000Y975000D03*
X1202500D03*
X1187500D03*
X1180000D03*
X1195000Y1015000D03*
X1202500D03*
X1187500D03*
X1180000D03*
X1192500Y1052500D03*
X1179000Y1061500D03*
Y1101500D03*
X1192500Y1092500D03*
X1210000Y975000D03*
X1217500D03*
X1225000D03*
X1210000Y1015000D03*
X1217500D03*
X1225000D03*
X1213000Y1059600D03*
Y1079600D03*
X1207500Y1110000D03*
X1215000D03*
X1207500Y1150000D03*
X1215000D03*
X1235000Y987500D03*
X1245000D03*
X1235000Y1017500D03*
X1245000D03*
X1235000Y1007500D03*
X1245000D03*
X1235000Y997500D03*
X1245000D03*
Y1047500D03*
Y1027500D03*
X1235000Y1065000D03*
Y1085000D03*
G54D14*
X1084000Y987500D03*
Y977500D03*
Y997500D03*
Y1007500D03*
X1085000Y1082500D03*
Y1102500D03*
Y1092500D03*
Y1125000D03*
Y1115000D03*
X1094000Y992500D03*
Y982500D03*
Y972500D03*
Y1002500D03*
X1115000Y1092500D03*
Y1102500D03*
Y1115000D03*
Y1125000D03*
Y1135000D03*
G54D15*
X1058000Y967500D03*
Y1012500D03*
G54D16*
X1091500Y1027000D03*
X1101500D03*
X1111500D03*
Y1057000D03*
X1101500D03*
X1091500D03*
X1121500Y1027000D03*
X1131500D03*
X1141500D03*
Y1057000D03*
X1131500D03*
X1121500D03*
X1151500Y1027000D03*
X1161500D03*
X1171500D03*
X1161500Y1057000D03*
X1151500D03*
G54D17*
X1085000Y1135000D03*
X1115000Y1082500D03*
X1171500Y1057000D03*
G54D18*
X1158000Y1096500D03*
X1163000Y1101500D03*
X1168000Y1096500D03*
G54D19*
X1192500Y1107500D03*
X1226500Y1128400D03*
X1250000Y1085000D03*
M02*
